<svg xmlns="http://www.w3.org/2000/svg" viewBox="0 0 96 96" width="96" height="96">
  <rect width="96" height="96" rx="20" fill="#f04747"/>
  <path fill="#fff" fill-rule="evenodd"
    d="M21.8 18.6a4 4 0 00-5.6 5.6l4.2 4.2A36 36 0 0012.2 48c4.8 15 18.8 26 35.8 26
       a35.8 35.8 0 0017.6-4.6l4.6 4.6a4 4 0 005.6-5.6L21.8 18.6z
       m15 15l5.4 5.4a8 8 0 018.8 8.8l5.4 5.4a16 16 0 00-19.6-19.6z"
    clip-rule="evenodd"/>
  <path fill="#fff"
    d="M57.6 62.8L46 51.2A8 8 0 0138.8 44l-11.6-11.6A35.8 35.8 0 0012.2 48
       c4.8 15 18.8 26 35.8 26a35.8 35.8 0 0017.6-4.6l-8-6.6z"/>
</svg>
