<svg xmlns="http://www.w3.org/2000/svg" viewBox="0 0 48 48" width="48" height="48">
  <rect width="48" height="48" rx="10" fill="#f04747"/>
  <path fill="#fff" fill-rule="evenodd"
    d="M10.9 9.3a2 2 0 00-2.8 2.8l2.1 2.1A18 18 0 006.1 24c2.4 7.5 9.4 13 17.9 13
       a17.9 17.9 0 008.8-2.3l2.3 2.3a2 2 0 002.8-2.8L10.9 9.3z
       m7.5 7.5l2.7 2.7a4 4 0 014.4 4.4l2.7 2.7a8 8 0 00-9.8-9.8z"
    clip-rule="evenodd"/>
  <path fill="#fff"
    d="M28.8 31.4L23 25.6A4 4 0 0119.4 22l-5.8-5.8A17.9 17.9 0 006.1 24
       c2.4 7.5 9.4 13 17.9 13a17.9 17.9 0 008.8-2.3l-4-3.3z"/>
</svg>
